# Blender 5.1.0
# www.blender.org
g Cube_Cube.001
v -1.448276 -0.000012 1.208002
v -1.448276 1.999988 1.208002
v -1.448276 -0.000012 -1.031998
v -1.448276 1.999988 -1.031998
v 1.551724 -0.000012 1.208002
v 1.551724 -0.000012 -1.031998
v 1.551724 -0.000012 1.208002
v -1.448276 1.999988 1.208002
v 1.320955 -0.000012 1.208002
v 1.320955 0.166655 1.208002
v 1.090186 0.166655 1.208002
v 1.090186 0.333321 1.208002
v 0.859416 0.333321 1.208002
v 0.859416 0.499988 1.208002
v 0.628647 0.499988 1.208002
v 0.628647 0.666655 1.208002
v 0.397878 0.666655 1.208002
v 0.397878 0.833321 1.208002
v 0.167109 0.833321 1.208002
v 0.167109 0.999988 1.208002
v -0.063661 0.999988 1.208002
v -0.063661 1.166655 1.208002
v -0.294430 1.166655 1.208002
v -0.294430 1.333321 1.208002
v -0.525199 1.333321 1.208002
v -0.525199 1.499988 1.208002
v -0.755968 1.499988 1.208002
v -0.755968 1.666655 1.208002
v -0.986737 1.666655 1.208002
v -0.986737 1.833321 1.208002
v -1.217507 1.833321 1.208002
v -1.217507 1.999988 1.208002
v -1.448276 1.999988 -1.031998
v 1.551724 -0.000012 -1.031998
v -1.217507 1.999988 -1.031998
v -1.217507 1.833321 -1.031998
v -0.986737 1.833321 -1.031998
v -0.986737 1.666655 -1.031998
v -0.755968 1.666655 -1.031998
v -0.755968 1.499988 -1.031998
v -0.525199 1.499988 -1.031998
v -0.525199 1.333321 -1.031998
v -0.294430 1.333321 -1.031998
v -0.294430 1.166655 -1.031998
v -0.063661 1.166655 -1.031998
v -0.063661 0.999988 -1.031998
v 0.167109 0.999988 -1.031998
v 0.167109 0.833321 -1.031998
v 0.397878 0.833321 -1.031998
v 0.397878 0.666655 -1.031998
v 0.628647 0.666655 -1.031998
v 0.628647 0.499988 -1.031998
v 0.859416 0.499988 -1.031998
v 0.859416 0.333321 -1.031998
v 1.090186 0.333321 -1.031998
v 1.090186 0.166655 -1.031998
v 1.320955 0.166655 -1.031998
v 1.320955 -0.000012 -1.031998
vn -1.0000 -0.0000 -0.0000
vn -0.0000 -1.0000 -0.0000
vn -0.0000 1.0000 -0.0000
vn 1.0000 -0.0000 -0.0000
vn -0.0000 -0.0000 1.0000
vn -0.0000 -0.0000 -1.0000
vt 0.097333 0.178161
vt 0.097333 0.844828
vt 0.843999 0.844828
vt 0.843999 0.178161
vt 0.017241 0.843999
vt 1.017241 0.843999
vt 1.017241 0.097333
vt 0.017241 0.097333
vt 0.094164 0.097333
vt 0.094164 0.843999
vt 0.097333 0.789272
vt 0.843999 0.789272
vt 0.171088 0.097333
vt 0.171088 0.843999
vt 0.097333 0.733716
vt 0.843999 0.733716
vt 0.248011 0.097333
vt 0.248011 0.843999
vt 0.097333 0.678161
vt 0.843999 0.678161
vt 0.324934 0.097333
vt 0.324934 0.843999
vt 0.097333 0.622605
vt 0.843999 0.622605
vt 0.401857 0.097333
vt 0.401857 0.843999
vt 0.097333 0.567050
vt 0.843999 0.567050
vt 0.478780 0.097333
vt 0.478780 0.843999
vt 0.097333 0.511494
vt 0.843999 0.511494
vt 0.555703 0.097333
vt 0.555703 0.843999
vt 0.097333 0.455939
vt 0.843999 0.455939
vt 0.632626 0.097333
vt 0.632626 0.843999
vt 0.097333 0.400383
vt 0.843999 0.400383
vt 0.709549 0.097333
vt 0.709549 0.843999
vt 0.097333 0.344828
vt 0.843999 0.344828
vt 0.786472 0.097333
vt 0.786472 0.843999
vt 0.097333 0.289272
vt 0.843999 0.289272
vt 0.863395 0.097333
vt 0.863395 0.843999
vt 0.097333 0.233716
vt 0.843999 0.233716
vt 0.940318 0.097333
vt 0.940318 0.843999
vt 1.017241 0.178161
vt 0.940318 0.178161
vt 0.940318 0.233716
vt 0.863395 0.233716
vt 0.863395 0.289272
vt 0.786472 0.289272
vt 0.786472 0.344828
vt 0.709549 0.344828
vt 0.709549 0.400383
vt 0.632626 0.400383
vt 0.632626 0.455939
vt 0.555703 0.455939
vt 0.555703 0.511494
vt 0.478780 0.511494
vt 0.478780 0.567050
vt 0.401857 0.567050
vt 0.401857 0.622605
vt 0.324934 0.622605
vt 0.324934 0.678161
vt 0.248011 0.678161
vt 0.248011 0.733716
vt 0.171088 0.733716
vt 0.171088 0.789272
vt 0.094164 0.789272
vt 0.094164 0.844828
vt 0.017241 0.844828
vt 0.017241 0.178161
s 0
f 1/1/1 2/2/1 4/3/1 3/4/1
f 3/5/2 6/6/2 5/7/2 1/8/2
f 33/5/3 8/8/3 32/9/3 35/10/3
f 35/3/4 32/2/4 31/11/4 36/12/4
f 36/10/3 31/9/3 30/13/3 37/14/3
f 37/12/4 30/11/4 29/15/4 38/16/4
f 38/14/3 29/13/3 28/17/3 39/18/3
f 39/16/4 28/15/4 27/19/4 40/20/4
f 40/18/3 27/17/3 26/21/3 41/22/3
f 41/20/4 26/19/4 25/23/4 42/24/4
f 42/22/3 25/21/3 24/25/3 43/26/3
f 43/24/4 24/23/4 23/27/4 44/28/4
f 44/26/3 23/25/3 22/29/3 45/30/3
f 45/28/4 22/27/4 21/31/4 46/32/4
f 46/30/3 21/29/3 20/33/3 47/34/3
f 47/32/4 20/31/4 19/35/4 48/36/4
f 48/34/3 19/33/3 18/37/3 49/38/3
f 49/36/4 18/35/4 17/39/4 50/40/4
f 50/38/3 17/37/3 16/41/3 51/42/3
f 51/40/4 16/39/4 15/43/4 52/44/4
f 52/42/3 15/41/3 14/45/3 53/46/3
f 53/44/4 14/43/4 13/47/4 54/48/4
f 54/46/3 13/45/3 12/49/3 55/50/3
f 55/48/4 12/47/4 11/51/4 56/52/4
f 56/50/3 11/49/3 10/53/3 57/54/3
f 57/52/4 10/51/4 9/1/4 58/4/4
f 58/54/3 9/53/3 7/7/3 34/6/3
f 33/5/3 4/5/3 2/8/3 8/8/3
f 6/6/3 34/6/3 7/7/3 5/7/3
f 5/55/5 7/55/5 9/56/5 10/57/5 11/58/5 12/59/5 13/60/5 14/61/5 15/62/5 16/63/5 17/64/5 18/65/5 19/66/5 20/67/5 21/68/5 22/69/5 23/70/5 24/71/5 25/72/5 26/73/5 27/74/5 28/75/5 29/76/5 30/77/5 31/78/5 32/79/5 8/80/5 2/80/5 1/81/5
f 3/81/6 4/80/6 33/80/6 35/79/6 36/78/6 37/77/6 38/76/6 39/75/6 40/74/6 41/73/6 42/72/6 43/71/6 44/70/6 45/69/6 46/68/6 47/67/6 48/66/6 49/65/6 50/64/6 51/63/6 52/62/6 53/61/6 54/60/6 55/59/6 56/58/6 57/57/6 58/56/6 34/55/6 6/55/6
g Cube.002_Cube.004
v -1.448275 -0.000009 -1.032004
v -1.448275 1.999991 -1.032004
v -1.448275 -0.000009 -1.256003
v -1.448275 1.999991 -1.256003
v 0.051725 -0.000009 -1.256003
v 0.051725 1.999991 -1.256003
v 0.051725 -0.000009 -1.032004
v 0.051725 1.999991 -1.032004
v -1.448275 -0.000009 1.432061
v -1.448275 1.999991 1.432061
v -1.448275 -0.000009 1.208061
v -1.448275 1.999991 1.208061
v 1.551725 -0.000009 1.432061
v 1.551725 1.999991 1.432061
v 1.551725 -0.000009 1.208061
v 1.551725 1.999991 1.208061
vn -1.0000 -0.0000 -0.0000
vn -0.0000 -0.0000 1.0000
vn -0.0000 -1.0000 -0.0000
vn 1.0000 -0.0000 -0.0000
vn -0.0000 -0.0000 -1.0000
vt 0.762311 0.031915
vt 0.762311 1.031914
vt 0.818311 1.031914
vt 0.818311 0.031915
vt 0.517242 0.031915
vt 0.517242 1.031914
vt 0.142242 1.031914
vt 0.142242 0.031915
vt 0.142242 1.142673
vt 0.517242 1.142673
vt 0.517242 1.030673
vt 0.142242 1.030673
vt 0.146295 0.031915
vt 0.146295 1.031914
vt 0.202295 1.031914
vt 0.202295 0.031915
vt 0.892242 1.031914
vt 0.892242 0.031915
vt 0.142242 -0.089359
vt 0.892242 -0.089359
vt 0.892242 -0.201359
vt 0.142242 -0.201359
s 1
f 59/82/7 60/83/7 62/84/7 61/85/7
f 65/86/8 66/87/8 60/88/8 59/89/8
f 61/90/9 63/91/9 65/92/9 59/93/9
f 66/83/10 65/82/10 63/85/10 64/84/10
f 61/89/11 62/88/11 64/87/11 63/86/11
f 67/94/7 68/95/7 70/96/7 69/97/7
f 69/89/11 70/88/11 74/98/11 73/99/11
f 73/97/10 74/96/10 72/95/10 71/94/10
f 71/99/8 72/98/8 68/88/8 67/89/8
f 69/100/9 73/101/9 71/102/9 67/103/9
g Cube.001_Cube.005
v -1.448275 1.999991 -1.032004
v -1.448275 1.999991 -1.256003
v 0.051725 1.999991 -1.256003
v 0.051725 1.999991 -1.032004
v -1.448275 2.121589 -1.032004
v -1.448275 2.121589 -1.256003
v 0.051725 2.121589 -1.032004
v 0.051725 2.121589 -1.256003
v -1.497791 1.999991 -0.982487
v -1.497791 1.999991 -1.305520
v 0.101242 1.999991 -0.982487
v 0.101242 1.999991 -1.305520
v -1.497791 2.121589 -0.982487
v -1.497791 2.121589 -1.305520
v 0.101242 2.121589 -0.982487
v 0.101242 2.121589 -1.305520
v -1.448275 2.198811 -1.032004
v -1.392907 2.254179 -1.087371
v -1.447211 2.209613 -1.033067
v -1.444060 2.219999 -1.036218
v -1.438943 2.229572 -1.041335
v -1.432058 2.237962 -1.048220
v -1.423667 2.244848 -1.056611
v -1.414095 2.249964 -1.066183
v -1.403708 2.253115 -1.076570
v -1.392907 2.254179 -1.200636
v -1.448275 2.198811 -1.256003
v -1.403708 2.253115 -1.211437
v -1.414095 2.249964 -1.221824
v -1.423667 2.244848 -1.231396
v -1.432058 2.237962 -1.239787
v -1.438943 2.229572 -1.246672
v -1.444060 2.219999 -1.251789
v -1.447211 2.209613 -1.254940
v 0.051725 2.198811 -1.032004
v -0.003643 2.254179 -1.087371
v 0.050662 2.209613 -1.033067
v 0.047511 2.219999 -1.036218
v 0.042394 2.229572 -1.041335
v 0.035508 2.237962 -1.048220
v 0.027118 2.244848 -1.056611
v 0.017546 2.249964 -1.066183
v 0.007159 2.253115 -1.076570
v -0.003643 2.254179 -1.200636
v 0.051725 2.198811 -1.256003
v 0.007159 2.253115 -1.211437
v 0.017546 2.249964 -1.221824
v 0.027118 2.244848 -1.231396
v 0.035508 2.237962 -1.239787
v 0.042394 2.229572 -1.246672
v 0.047511 2.219999 -1.251789
v 0.050662 2.209613 -1.254940
vn -0.0000 1.0000 -0.0000
vn -0.0000 -1.0000 -0.0000
vn -0.0000 -0.0000 1.0000
vn 1.0000 -0.0000 -0.0000
vn -0.0000 -0.0000 -1.0000
vn -1.0000 -0.0000 -0.0000
vn -0.0368 0.9986 0.0368
vn -0.0368 0.9986 -0.0368
vn -0.1232 0.9847 -0.1232
vn -0.1232 0.9847 0.1232
vn -0.2233 0.9488 -0.2233
vn -0.2233 0.9488 0.2233
vn -0.5917 0.8061 -0.0000
vn -0.7345 0.6786 -0.0000
vn -0.8493 0.5280 -0.0000
vn -0.9327 0.3605 -0.0000
vn -0.9832 0.1827 -0.0000
vn -0.9989 0.0475 -0.0000
vn 0.0368 0.9986 0.0368
vn 0.1232 0.9847 0.1232
vn 0.2233 0.9488 0.2233
vn -0.0000 0.8061 0.5917
vn -0.0000 0.6786 0.7345
vn -0.0000 0.5280 0.8493
vn -0.0000 0.3605 0.9327
vn -0.0000 0.1827 0.9832
vn -0.0000 0.0475 0.9989
vn 0.0368 0.9986 -0.0368
vn 0.1232 0.9847 -0.1232
vn 0.2233 0.9488 -0.2233
vn -0.0000 0.8061 -0.5917
vn -0.0000 0.6786 -0.7345
vn -0.0000 0.5280 -0.8493
vn -0.0000 0.3605 -0.9327
vn -0.0000 0.1827 -0.9832
vn -0.0000 0.0475 -0.9989
vn 0.5917 0.8061 -0.0000
vn 0.7345 0.6786 -0.0000
vn 0.8493 0.5280 -0.0000
vn 0.9327 0.3605 -0.0000
vn 0.9832 0.1827 -0.0000
vn 0.9989 0.0475 -0.0000
vt -0.385719 -0.438067
vt -0.385719 1.438067
vt -0.447652 1.500000
vt -0.447652 -0.500000
vt 0.298486 -0.438067
vt 0.018316 -0.438067
vt -0.043617 -0.500000
vt 0.360419 -0.500000
vt -0.105550 1.438067
vt -0.043617 1.500000
vt 0.018316 1.438067
vt 0.298486 1.438067
vt 0.360419 1.500000
vt -0.043617 1.500000
vt 0.749762 -0.500000
vt 0.749762 1.500000
vt 0.600021 1.500000
vt 0.600021 -0.500000
vt 1.342956 -0.095965
vt 1.342956 0.308070
vt 1.193216 0.308070
vt 1.193216 -0.095965
vt 0.899502 -0.500000
vt 0.899502 1.500000
vt 0.749762 1.500000
vt 0.749762 -0.500000
vt 1.342956 -0.500000
vt 1.342956 -0.095965
vt 1.193216 -0.095965
vt 1.193216 -0.500000
vt -0.105550 -0.438067
vt -0.043617 -0.500000
vt 0.409387 1.286599
vt 0.551053 1.286599
vt 0.564563 1.300109
vt 0.395877 1.300109
vt 0.577555 1.313100
vt 0.382886 1.313100
vt 0.589527 1.325073
vt 0.370913 1.325073
vt 0.600022 1.335567
vt 0.360419 1.335567
vt 1.193216 0.848126
vt 1.193216 0.608523
vt 1.205056 0.599911
vt 1.205056 0.856738
vt 1.217964 0.593511
vt 1.217964 0.863138
vt 1.231445 0.589570
vt 1.231445 0.867078
vt 1.244979 0.588240
vt 1.244979 0.868409
vt 0.409387 -0.451032
vt 0.395877 -0.464542
vt 0.382886 -0.477533
vt 0.370913 -0.489506
vt 0.360419 -0.500000
vt 0.899502 1.355850
vt 0.899502 -0.479717
vt 0.911342 -0.488329
vt 0.911342 1.364463
vt 0.924251 -0.494729
vt 0.924251 1.370862
vt 0.937731 -0.498669
vt 0.937731 1.374803
vt 0.951266 -0.500000
vt 0.951266 1.376134
vt 0.551053 -0.451032
vt 0.564564 -0.464542
vt 0.577555 -0.477533
vt 0.589527 -0.489506
vt 0.600022 -0.500000
vt 1.046359 1.355850
vt 1.046359 -0.479717
vt 1.058199 -0.488329
vt 1.058199 1.364463
vt 1.071107 -0.494729
vt 1.071107 1.370862
vt 1.084588 -0.498669
vt 1.084588 1.374803
vt 1.098123 -0.500000
vt 1.098123 1.376134
vt 1.193216 0.567956
vt 1.193216 0.328354
vt 1.205056 0.319742
vt 1.205056 0.576569
vt 1.217964 0.313342
vt 1.217964 0.582968
vt 1.231445 0.309401
vt 1.231445 0.586909
vt 1.244980 0.308071
vt 1.244980 0.588240
vt 1.340073 0.588240
vt 1.340073 0.868409
vt 1.046359 -0.500000
vt 1.046359 1.376134
vt 1.193216 -0.500000
vt 1.193216 1.376134
vt 1.340073 0.308071
vt 1.340073 0.588240
s 1
f 81/104/12 79/105/12 87/106/12 89/107/12
f 76/108/13 75/109/13 83/110/13 84/111/13
f 79/105/12 80/112/12 88/113/12 87/106/12
f 78/114/13 77/115/13 86/116/13 85/117/13
f 83/118/14 85/119/14 89/120/14 87/121/14
f 85/122/15 86/123/15 90/124/15 89/125/15
f 86/126/16 84/127/16 88/128/16 90/129/16
f 84/130/17 83/131/17 87/132/17 88/133/17
f 80/112/12 82/134/12 90/135/12 88/113/12
f 82/134/12 81/104/12 89/107/12 90/135/12
f 75/109/13 78/114/13 85/117/13 83/110/13
f 77/115/13 76/108/13 84/111/13 86/116/13
f 92/136/18 100/137/19 102/138/20 99/139/21
f 99/139/21 102/138/20 103/140/22 98/141/23
f 98/141/23 103/140/22 104/142/24 97/143/24
f 97/143/24 104/142/24 105/144/25 96/145/25
f 96/146/25 105/147/25 106/148/26 95/149/26
f 95/149/26 106/148/26 107/150/27 94/151/27
f 94/151/27 107/150/27 108/152/28 93/153/28
f 93/153/28 108/152/28 101/154/29 91/155/29
f 110/156/30 92/136/18 99/139/21 117/157/31
f 117/157/31 99/139/21 98/141/23 116/158/32
f 116/158/32 98/141/23 97/143/33 115/159/33
f 115/159/33 97/143/33 96/145/34 114/160/34
f 114/161/34 96/162/34 95/163/35 113/164/35
f 113/164/35 95/163/35 94/165/36 112/166/36
f 112/166/36 94/165/36 93/167/37 111/168/37
f 111/168/37 93/167/37 91/169/38 109/170/38
f 100/137/19 118/171/39 120/172/40 102/138/20
f 102/138/20 120/172/40 121/173/41 103/140/22
f 103/140/22 121/173/41 122/174/42 104/142/42
f 104/142/42 122/174/42 123/175/43 105/144/43
f 105/176/43 123/177/43 124/178/44 106/179/44
f 106/179/44 124/178/44 125/180/45 107/181/45
f 107/181/45 125/180/45 126/182/46 108/183/46
f 108/183/46 126/182/46 119/184/47 101/185/47
f 118/171/39 110/156/30 117/157/31 120/172/40
f 120/172/40 117/157/31 116/158/32 121/173/41
f 121/173/41 116/158/32 115/159/48 122/174/48
f 122/174/48 115/159/48 114/160/49 123/175/49
f 123/186/49 114/187/49 113/188/50 124/189/50
f 124/189/50 113/188/50 112/190/51 125/191/51
f 125/191/51 112/190/51 111/192/52 126/193/52
f 126/193/52 111/192/52 109/194/53 119/195/53
f 80/196/17 79/197/17 91/155/29 101/154/29
f 118/171/39 100/137/19 92/136/18 110/156/30
f 79/198/14 81/199/14 109/170/38 91/169/38
f 82/200/16 80/201/16 101/185/47 119/184/47
f 81/202/15 82/203/15 119/195/53 109/194/53
g Cube.003_Cube.007
v -1.448275 1.999991 1.432061
v -1.448275 1.999991 1.208061
v 1.551725 1.999991 1.432061
v 1.551725 1.999991 1.208061
v -1.448275 2.121589 1.432061
v -1.448275 2.121589 1.208061
v 1.551725 2.121589 1.208061
v 1.551725 2.121589 1.432061
v -1.497791 1.999991 1.481577
v -1.497791 1.999991 1.158545
v 1.601242 1.999991 1.158545
v 1.601242 1.999991 1.481577
v -1.497791 2.121589 1.481577
v -1.497791 2.121589 1.158545
v 1.601242 2.121589 1.158545
v 1.601242 2.121589 1.481577
v -1.448275 2.198811 1.432061
v -1.392907 2.254179 1.376693
v -1.447211 2.209613 1.430997
v -1.444060 2.219999 1.427846
v -1.438943 2.229572 1.422730
v -1.432058 2.237962 1.415844
v -1.423667 2.244848 1.407454
v -1.414095 2.249964 1.397881
v -1.403708 2.253115 1.387495
v -1.392907 2.254179 1.263429
v -1.448275 2.198811 1.208061
v -1.403708 2.253115 1.252627
v -1.414095 2.249964 1.242241
v -1.423667 2.244848 1.232668
v -1.432058 2.237962 1.224278
v -1.438943 2.229572 1.217392
v -1.444060 2.219999 1.212276
v -1.447211 2.209613 1.209125
v 1.496357 2.254179 1.263429
v 1.551725 2.198811 1.208061
v 1.507159 2.253115 1.252627
v 1.517546 2.249964 1.242241
v 1.527118 2.244848 1.232668
v 1.535509 2.237962 1.224278
v 1.542394 2.229572 1.217392
v 1.547511 2.219999 1.212276
v 1.550662 2.209613 1.209125
v 1.496357 2.254179 1.376693
v 1.551725 2.198811 1.432061
v 1.507159 2.253115 1.387495
v 1.517546 2.249964 1.397881
v 1.527118 2.244848 1.407454
v 1.535509 2.237962 1.415844
v 1.542394 2.229572 1.422730
v 1.547511 2.219999 1.427846
v 1.550662 2.209613 1.430997
vn -0.0000 -1.0000 -0.0000
vn -0.0000 1.0000 -0.0000
vn 1.0000 -0.0000 -0.0000
vn -1.0000 -0.0000 -0.0000
vn -0.0000 -0.0000 1.0000
vn -0.0000 -0.0000 -1.0000
vn -0.0368 0.9986 0.0368
vn -0.0368 0.9986 -0.0368
vn -0.1232 0.9847 -0.1232
vn -0.1232 0.9847 0.1232
vn -0.2233 0.9488 -0.2233
vn -0.2233 0.9488 0.2233
vn -0.5917 0.8061 -0.0000
vn -0.7345 0.6786 -0.0000
vn -0.8493 0.5280 -0.0000
vn -0.9327 0.3605 -0.0000
vn -0.9832 0.1827 -0.0000
vn -0.9989 0.0475 -0.0000
vn 0.0368 0.9986 -0.0368
vn 0.1232 0.9847 -0.1232
vn 0.2233 0.9488 -0.2233
vn -0.0000 0.8061 -0.5917
vn -0.0000 0.6786 -0.7345
vn -0.0000 0.5280 -0.8493
vn -0.0000 0.3605 -0.9327
vn -0.0000 0.1827 -0.9832
vn -0.0000 0.0475 -0.9989
vn 0.0368 0.9986 0.0368
vn 0.1232 0.9847 0.1232
vn 0.2233 0.9488 0.2233
vn 0.5917 0.8061 -0.0000
vn 0.7345 0.6786 -0.0000
vn 0.8493 0.5280 -0.0000
vn 0.9327 0.3605 -0.0000
vn 0.9832 0.1827 -0.0000
vn 0.9989 0.0475 -0.0000
vn -0.0000 0.8061 0.5917
vn -0.0000 0.6786 0.7345
vn -0.0000 0.5280 0.8493
vn -0.0000 0.3605 0.9327
vn -0.0000 0.1827 0.9832
vn -0.0000 0.0475 0.9989
vt -0.271135 1.468044
vt -0.271135 -0.468044
vt -0.239179 -0.500000
vt -0.239179 1.500000
vt -0.207222 -0.468044
vt -0.207223 1.468044
vt -0.239179 1.500000
vt -0.239178 -0.500000
vt -0.415696 -0.468044
vt -0.415696 1.468044
vt -0.447652 1.500000
vt -0.447652 -0.500000
vt -0.062661 -0.468044
vt -0.030705 -0.500000
vt 0.476263 -0.500000
vt 0.476263 -0.291527
vt 0.399000 -0.291527
vt 0.399000 -0.500000
vt 0.476263 -0.291526
vt 0.476263 -0.083053
vt 0.399000 -0.083053
vt 0.399000 -0.291526
vt 0.170188 -0.500000
vt 0.170187 1.500000
vt 0.092925 1.500000
vt 0.092925 -0.500000
vt 0.247450 -0.500000
vt 0.247450 1.500000
vt 0.170188 1.500000
vt 0.170188 -0.500000
vt -0.062661 1.468044
vt -0.030705 1.500000
vt -0.005439 1.389890
vt 0.067658 1.389890
vt 0.074629 1.396861
vt -0.012410 1.396861
vt 0.081332 1.403564
vt -0.019113 1.403564
vt 0.087510 1.409742
vt -0.025290 1.409742
vt 0.092925 1.415156
vt -0.030705 1.415156
vt 0.399000 0.195604
vt 0.399000 0.071974
vt 0.405109 0.067530
vt 0.405109 0.200047
vt 0.411770 0.064228
vt 0.411770 0.203349
vt 0.418725 0.062195
vt 0.418725 0.205383
vt 0.425709 0.061508
vt 0.425709 0.206069
vt 0.067658 -0.474733
vt 0.074629 -0.481704
vt 0.081332 -0.488407
vt 0.087510 -0.494585
vt 0.092925 -0.500000
vt 0.247450 1.425622
vt 0.247451 -0.489534
vt 0.253560 -0.493978
vt 0.253560 1.430066
vt 0.260220 -0.497280
vt 0.260220 1.433368
vt 0.267176 -0.499313
vt 0.267176 1.435401
vt 0.274159 -0.500000
vt 0.274159 1.436088
vt -0.005438 -0.474733
vt -0.012409 -0.481704
vt -0.019113 -0.488407
vt -0.025290 -0.494585
vt -0.030705 -0.500000
vt 0.399000 0.051042
vt 0.399000 -0.072587
vt 0.405110 -0.077031
vt 0.405109 0.055486
vt 0.411770 -0.080333
vt 0.411770 0.058788
vt 0.418725 -0.082367
vt 0.418725 0.060822
vt 0.425709 -0.083053
vt 0.425709 0.061508
vt 0.323225 1.425622
vt 0.323225 -0.489534
vt 0.329335 -0.493978
vt 0.329334 1.430066
vt 0.335995 -0.497280
vt 0.335995 1.433368
vt 0.342951 -0.499313
vt 0.342950 1.435401
vt 0.349934 -0.500000
vt 0.349934 1.436088
vt 0.399000 -0.500000
vt 0.399000 1.436088
vt 0.474775 0.061508
vt 0.474775 0.206069
vt 0.323225 -0.500000
vt 0.323225 1.436088
vt 0.474775 -0.083053
vt 0.474775 0.061508
s 1
f 130/204/54 128/205/54 136/206/54 137/207/54
f 134/208/55 131/209/55 139/210/55 142/211/55
f 127/212/54 129/213/54 138/214/54 135/215/54
f 133/216/55 134/208/55 142/211/55 141/217/55
f 138/218/56 137/219/56 141/220/56 142/221/56
f 136/222/57 135/223/57 139/224/57 140/225/57
f 135/226/58 138/227/58 142/228/58 139/229/58
f 137/230/59 136/231/59 140/232/59 141/233/59
f 129/213/54 130/204/54 137/207/54 138/214/54
f 131/209/55 132/234/55 140/235/55 139/210/55
f 128/205/54 127/212/54 135/215/54 136/206/54
f 132/234/55 133/216/55 141/217/55 140/235/55
f 144/236/60 152/237/61 154/238/62 151/239/63
f 151/239/63 154/238/62 155/240/64 150/241/65
f 150/241/65 155/240/64 156/242/66 149/243/66
f 149/243/66 156/242/66 157/244/67 148/245/67
f 148/246/67 157/247/67 158/248/68 147/249/68
f 147/249/68 158/248/68 159/250/69 146/251/69
f 146/251/69 159/250/69 160/252/70 145/253/70
f 145/253/70 160/252/70 153/254/71 143/255/71
f 152/237/61 161/256/72 163/257/73 154/238/62
f 154/238/62 163/257/73 164/258/74 155/240/64
f 155/240/64 164/258/74 165/259/75 156/242/75
f 156/242/75 165/259/75 166/260/76 157/244/76
f 157/261/76 166/262/76 167/263/77 158/264/77
f 158/264/77 167/263/77 168/265/78 159/266/78
f 159/266/78 168/265/78 169/267/79 160/268/79
f 160/268/79 169/267/79 162/269/80 153/270/80
f 161/256/72 170/271/81 172/272/82 163/257/73
f 163/257/73 172/272/82 173/273/83 164/258/74
f 164/258/74 173/273/83 174/274/84 165/259/84
f 165/259/84 174/274/84 175/275/85 166/260/85
f 166/276/85 175/277/85 176/278/86 167/279/86
f 167/279/86 176/278/86 177/280/87 168/281/87
f 168/281/87 177/280/87 178/282/88 169/283/88
f 169/283/88 178/282/88 171/284/89 162/285/89
f 170/271/81 144/236/60 151/239/63 172/272/82
f 172/272/82 151/239/63 150/241/65 173/273/83
f 173/273/83 150/241/65 149/243/90 174/274/90
f 174/274/90 149/243/90 148/245/91 175/275/91
f 175/286/91 148/287/91 147/288/92 176/289/92
f 176/289/92 147/288/92 146/290/93 177/291/93
f 177/291/93 146/290/93 145/292/94 178/293/94
f 178/293/94 145/292/94 143/294/95 171/295/95
f 161/256/72 152/237/61 144/236/60 170/271/81
f 131/296/58 134/297/58 171/295/95 143/294/95
f 132/298/57 131/299/57 143/255/71 153/254/71
f 133/300/59 132/301/59 153/270/80 162/269/80
f 134/302/56 133/303/56 162/285/89 171/284/89
