# Blender 5.1.0
# www.blender.org
mtllib Tube.mtl
o Cylinder
v 0.000000 -1.000000 -1.000000
v 0.000000 1.000000 -1.000000
v 0.173648 -1.000000 -0.984808
v 0.173648 1.000000 -0.984808
v 0.342020 -1.000000 -0.939693
v 0.342020 1.000000 -0.939693
v 0.500000 -1.000000 -0.866025
v 0.500000 1.000000 -0.866025
v 0.642788 -1.000000 -0.766044
v 0.642788 1.000000 -0.766044
v 0.766044 -1.000000 -0.642788
v 0.766044 1.000000 -0.642788
v 0.866025 -1.000000 -0.500000
v 0.866025 1.000000 -0.500000
v 0.939693 -1.000000 -0.342020
v 0.939693 1.000000 -0.342020
v 0.984808 -1.000000 -0.173648
v 0.984808 1.000000 -0.173648
v 1.000000 -1.000000 0.000000
v 1.000000 1.000000 0.000000
v 0.984808 -1.000000 0.173648
v 0.984808 1.000000 0.173648
v 0.939693 -1.000000 0.342020
v 0.939693 1.000000 0.342020
v 0.866025 -1.000000 0.500000
v 0.866025 1.000000 0.500000
v 0.766044 -1.000000 0.642788
v 0.766044 1.000000 0.642788
v 0.642788 -1.000000 0.766044
v 0.642788 1.000000 0.766044
v 0.500000 -1.000000 0.866025
v 0.500000 1.000000 0.866025
v 0.342020 -1.000000 0.939693
v 0.342020 1.000000 0.939693
v 0.173648 -1.000000 0.984808
v 0.173648 1.000000 0.984808
v 0.000000 -1.000000 1.000000
v 0.000000 1.000000 1.000000
v -0.173648 -1.000000 0.984808
v -0.173648 1.000000 0.984808
v -0.342020 -1.000000 0.939693
v -0.342020 1.000000 0.939693
v -0.500000 -1.000000 0.866025
v -0.500000 1.000000 0.866025
v -0.642788 -1.000000 0.766044
v -0.642788 1.000000 0.766044
v -0.766044 -1.000000 0.642788
v -0.766044 1.000000 0.642788
v -0.866025 -1.000000 0.500000
v -0.866025 1.000000 0.500000
v -0.939693 -1.000000 0.342020
v -0.939693 1.000000 0.342020
v -0.984808 -1.000000 0.173648
v -0.984808 1.000000 0.173648
v -1.000000 -1.000000 0.000000
v -1.000000 1.000000 0.000000
v -0.984808 -1.000000 -0.173648
v -0.984808 1.000000 -0.173648
v -0.939693 -1.000000 -0.342020
v -0.939693 1.000000 -0.342020
v -0.866025 -1.000000 -0.500000
v -0.866025 1.000000 -0.500000
v -0.766044 -1.000000 -0.642788
v -0.766044 1.000000 -0.642788
v -0.642788 -1.000000 -0.766044
v -0.642788 1.000000 -0.766044
v -0.500000 -1.000000 -0.866025
v -0.500000 1.000000 -0.866025
v -0.342020 -1.000000 -0.939693
v -0.342020 1.000000 -0.939693
v -0.173648 -1.000000 -0.984808
v -0.173648 1.000000 -0.984808
vn -0.0000 -0.0000 -1.0000
vn 0.1736 -0.0000 -0.9848
vn 0.3420 -0.0000 -0.9397
vn 0.5000 -0.0000 -0.8660
vn 0.6428 -0.0000 -0.7660
vn 0.7660 -0.0000 -0.6428
vn 0.8660 -0.0000 -0.5000
vn 0.9397 -0.0000 -0.3420
vn 0.9848 -0.0000 -0.1736
vn 1.0000 -0.0000 -0.0000
vn 0.9848 -0.0000 0.1736
vn 0.9397 -0.0000 0.3420
vn 0.8660 -0.0000 0.5000
vn 0.7660 -0.0000 0.6428
vn 0.6428 -0.0000 0.7660
vn 0.5000 -0.0000 0.8660
vn 0.3420 -0.0000 0.9397
vn 0.1736 -0.0000 0.9848
vn -0.0000 -0.0000 1.0000
vn -0.1736 -0.0000 0.9848
vn -0.3420 -0.0000 0.9397
vn -0.5000 -0.0000 0.8660
vn -0.6428 -0.0000 0.7660
vn -0.7660 -0.0000 0.6428
vn -0.8660 -0.0000 0.5000
vn -0.9397 -0.0000 0.3420
vn -0.9848 -0.0000 0.1736
vn -1.0000 -0.0000 -0.0000
vn -0.9848 -0.0000 -0.1736
vn -0.9397 -0.0000 -0.3420
vn -0.8660 -0.0000 -0.5000
vn -0.7660 -0.0000 -0.6428
vn -0.6428 -0.0000 -0.7660
vn -0.5000 -0.0000 -0.8660
vn -0.3420 -0.0000 -0.9397
vn -0.1736 -0.0000 -0.9848
vt 1.000000 0.000000
vt 1.000000 0.500000
vt 0.972222 0.500000
vt 0.972222 0.000000
vt 0.944444 0.500000
vt 0.944444 0.000000
vt 0.916667 0.500000
vt 0.916667 0.000000
vt 0.888889 0.500000
vt 0.888889 0.000000
vt 0.861111 0.500000
vt 0.861111 0.000000
vt 0.833333 0.500000
vt 0.833333 0.000000
vt 0.805555 0.500000
vt 0.805555 0.000000
vt 0.777778 0.500000
vt 0.777778 0.000000
vt 0.750000 0.500000
vt 0.750000 0.000000
vt 0.722222 0.500000
vt 0.722222 0.000000
vt 0.694444 0.500000
vt 0.694444 0.000000
vt 0.666667 0.500000
vt 0.666667 0.000000
vt 0.638889 0.500000
vt 0.638889 0.000000
vt 0.611111 0.500000
vt 0.611111 0.000000
vt 0.583333 0.500000
vt 0.583333 0.000000
vt 0.555555 0.500000
vt 0.555555 0.000000
vt 0.527778 0.500000
vt 0.527778 0.000000
vt 0.500000 0.500000
vt 0.500000 0.000000
vt 0.472222 0.500000
vt 0.472222 0.000000
vt 0.444444 0.500000
vt 0.444444 0.000000
vt 0.416666 0.500000
vt 0.416666 0.000000
vt 0.388889 0.500000
vt 0.388889 0.000000
vt 0.361111 0.500000
vt 0.361111 0.000000
vt 0.333333 0.500000
vt 0.333333 0.000000
vt 0.305555 0.500000
vt 0.305555 0.000000
vt 0.277777 0.500000
vt 0.277777 0.000000
vt 0.250000 0.500000
vt 0.250000 0.000000
vt 0.222222 0.500000
vt 0.222222 0.000000
vt 0.194444 0.500000
vt 0.194444 0.000000
vt 0.166666 0.500000
vt 0.166666 0.000000
vt 0.138889 0.500000
vt 0.138889 0.000000
vt 0.111111 0.500000
vt 0.111111 0.000000
vt 0.083333 0.500000
vt 0.083333 0.000000
vt 0.055555 0.500000
vt 0.055555 0.000000
vt 0.027777 0.500000
vt 0.027777 0.000000
vt -0.000000 0.500000
vt -0.000000 0.000000
s 1
usemtl Gradient
f 1/1/1 2/2/1 4/3/2 3/4/2
f 3/4/2 4/3/2 6/5/3 5/6/3
f 5/6/3 6/5/3 8/7/4 7/8/4
f 7/8/4 8/7/4 10/9/5 9/10/5
f 9/10/5 10/9/5 12/11/6 11/12/6
f 11/12/6 12/11/6 14/13/7 13/14/7
f 13/14/7 14/13/7 16/15/8 15/16/8
f 15/16/8 16/15/8 18/17/9 17/18/9
f 17/18/9 18/17/9 20/19/10 19/20/10
f 19/20/10 20/19/10 22/21/11 21/22/11
f 21/22/11 22/21/11 24/23/12 23/24/12
f 23/24/12 24/23/12 26/25/13 25/26/13
f 25/26/13 26/25/13 28/27/14 27/28/14
f 27/28/14 28/27/14 30/29/15 29/30/15
f 29/30/15 30/29/15 32/31/16 31/32/16
f 31/32/16 32/31/16 34/33/17 33/34/17
f 33/34/17 34/33/17 36/35/18 35/36/18
f 35/36/18 36/35/18 38/37/19 37/38/19
f 37/38/19 38/37/19 40/39/20 39/40/20
f 39/40/20 40/39/20 42/41/21 41/42/21
f 41/42/21 42/41/21 44/43/22 43/44/22
f 43/44/22 44/43/22 46/45/23 45/46/23
f 45/46/23 46/45/23 48/47/24 47/48/24
f 47/48/24 48/47/24 50/49/25 49/50/25
f 49/50/25 50/49/25 52/51/26 51/52/26
f 51/52/26 52/51/26 54/53/27 53/54/27
f 53/54/27 54/53/27 56/55/28 55/56/28
f 55/56/28 56/55/28 58/57/29 57/58/29
f 57/58/29 58/57/29 60/59/30 59/60/30
f 59/60/30 60/59/30 62/61/31 61/62/31
f 61/62/31 62/61/31 64/63/32 63/64/32
f 63/64/32 64/63/32 66/65/33 65/66/33
f 65/66/33 66/65/33 68/67/34 67/68/34
f 67/68/34 68/67/34 70/69/35 69/70/35
f 69/70/35 70/69/35 72/71/36 71/72/36
f 71/72/36 72/71/36 2/73/1 1/74/1
